<svg id="Layer_1" xmlns="http://www.w3.org/2000/svg" xmlns:xlink="http://www.w3.org/1999/xlink" viewBox="0 0 262 60"><style>.st0{clip-path:url(#SVGID_2_);} .st1{clip-path:url(#SVGID_4_);fill:#004FA3;} .st2{clip-path:url(#SVGID_4_);fill:#FFFFFF;} .st3{clip-path:url(#SVGID_4_);fill:#8E8E91;} .st4{clip-path:url(#SVGID_6_);} .st5{clip-path:url(#SVGID_8_);fill-rule:evenodd;clip-rule:evenodd;} .st6{clip-path:url(#SVGID_8_);fill-rule:evenodd;clip-rule:evenodd;fill:#A59D87;}</style><g id="EL_AL_Israel"><defs><path id="SVGID_5_" d="M11.368 15.3868h239.264v29.2264H11.368z"/></defs><clipPath id="SVGID_2_"><use xlink:href="#SVGID_5_" overflow="visible"/></clipPath><g class="st0"><defs><path id="SVGID_7_" d="M11.368 15.387h239.264v29.2262H11.368z"/></defs><clipPath id="SVGID_4_"><use xlink:href="#SVGID_7_" overflow="visible"/></clipPath><path d="M33.3131 44.4616H12.3127c-.6207.002-.9503-.454-.9443-1.0787V25.4497c-.0311-2.2513 2.4869-5.4596 5.8335-5.6085h18.6545c.4136-.0013.7504.4593.722.8034v4.4656c.0159.3249-.2766.63-.5877.6274H18.6133c-.4427.0285-.6545.3646-.673.7193l-.0013 2.2897c-.0073.2733.3143.6618.8861.6459h15.6647c.4705.0351.671.4354.6611.7399l-.0139 4.099c.0152.3157-.3355.6505-.6472.6585H18.6901c-.4533.0311-.7339.3309-.7068.6697l-.0066 2.2704c.0126.4143.411.6366.7332.6082l17.603-.0318c.3454-.002.6532.4388.5003.8596l-2.3142 4.5271c-.2488.4256-.6717.6758-1.1859.6685M212.6729 19.6223h36.945c.8504 0 1.2441.6068.8755 1.3487l-1.7398 3.4968c-.3693.7418-1.3672 1.3487-2.2176 1.3487h-36.9444c-.851 0-1.2448-.6068-.8755-1.3487l1.7398-3.4968c.3686-.7419 1.3666-1.3487 2.217-1.3487M203.8237 38.4195h36.9444c.851 0 1.2448.6068.8755 1.348l-1.7398 3.4974c-.3686.7418-1.3665 1.348-2.2169 1.348h-36.9451c-.8504 0-1.2441-.6062-.8755-1.348l1.7398-3.4974c.3692-.7412 1.3672-1.348 2.2176-1.348M59.8934 44.5235l-19.5479-.0179c-.4904-.006-.9424-.3964-.9523-.941l.0185-22.9891c-.0093-.5182.4626-.8438.9529-.8623h4.3392c.4871.0377.8782.4983.8848.8623l-.0185 17.2755c.0185.3031.2482.5479.5162.5625h16.744c.3349-.0146.5168.587.3904.8801l-2.2652 4.5371c-.2349.405-.5804.6816-1.0621.6928M154.19 44.4198l-19.5479-.0179c-.4897-.006-.9424-.3964-.9523-.941l.0185-22.9891c-.0086-.5182.4626-.8438.953-.8623h4.3392c.487.0377.8782.4977.8848.8623l-.0185 17.2754c.0185.3031.2482.5479.5162.5625h16.744c.3349-.0146.5168.587.3911.8801l-2.2659 4.5371c-.235.405-.5804.681-1.0622.6929" clip-path="url(#SVGID_4_)" fill-rule="evenodd" clip-rule="evenodd"/><path d="M65.3137 43.2025L73.196 26.751c.2548-.3858-.1621-.9338-.8338-.9503l-16.2808-.0099c-.583.0119-1.258-.626-1.262-1.1468l.0185-8.2913c-.002-.3163.2733-.9338.896-.9496h4.5166c.3375 0 .7835.3454.7551.9033l-.0139 2.5478c-.0079.4229.4242.8464.8795.8524l14.1969-.045c2.9025.0132 5.2498 3.9402 4.4709 6.848L72.29 44.2448c-.0887.1549-.276.2495-.4725.2568l-5.8467-.0496c-.5201.0006-.855-.6936-.6571-1.2495M159.367 43.1864l7.8823-16.4515c.2548-.3858-.1621-.9338-.8338-.9503l-16.2807-.0099c-.583.0112-1.258-.626-1.262-1.1475l.0185-8.2906c-.002-.317.2733-.9344.896-.9496h4.5166c.3382 0 .7835.3454.7551.9033l-.0139 2.5471c-.0079.4235.4242.8471.8795.853l14.1969-.045c2.9025.0132 5.2498 3.9402 4.4709 6.8479l-8.2489 17.7347c-.0887.1555-.276.2501-.4725.2574l-5.8467-.0496c-.5203.0007-.8552-.6942-.6573-1.2494M184.4744 31.8957c-1.3487 2.9713-2.698 5.9433-4.0467 8.914-.9285 1.8536-3.201 3.7284-4.5549 3.7204l-3.463-.0159c-.5076.0007-.7538-.6121-.5413-1.1151l8.5904-18.3018-2.4068-4.3326c-.3137-.4778-.1257-1.0648.4335-1.1052h5.3775c.6624.0443 1.2587.6585 1.4612 1.0529l6.3165 11.2355 5.2617-11.383c.182-.4249.5426-.9066 1.1918-.9086l4.1936.0099c1.3162-.0146 1.6485 1.8318.9748 3.3505l-7.562 15.9737c.8828 1.5459 1.7656 3.0918 2.6484 4.637.184.3216-.0907.9066-.6942.8993h-5.4212c-.4229.0139-.8676-.2356-1.0721-.6816l-6.6872-11.9494zM110.9486 21.3363c-2.9879 6.6018-5.9764 13.2029-8.9643 19.804-.8874 1.7398-3.0713 3.4332-5.7276 3.4313l-18.7273.0152c-.8365-.006-1.3679-.6075-1.0456-1.2547l1.9277-4.181c.1588-.3415.5334-.7207 1.0853-.718h9.3402c-1.3262-5.8302-2.653-11.6603-3.9799-17.4905-.1648-.6459.3944-1.2547.9152-1.2514l4.8071-.0033c.6472.0013.9258.409 1.0138.8424l3.9521 17.8882c.0576.2521.495.2415.6108.0112l7.691-18.0172c.1979-.4864.5963-.7134 1.0681-.726h5.2862c.808.0026 1.0066 1.0615.7472 1.6498" clip-path="url(#SVGID_4_)" fill-rule="evenodd" clip-rule="evenodd" fill="#A59D87"/><path d="M129.2822 19.6756h-10.4466c-1.8172.0013-3.9468 1.8979-4.7482 3.7152-3.0719 6.6064-6.1451 13.2135-9.2177 19.8199-.3739.8279.362 1.3215 1.1085 1.3215h4.048c.536-.0126.8848-.2601 1.0926-.6492.6465-1.2402 1.2931-2.4796 1.939-3.7198l11.0038.0165-.0146 3.5318c.0205.501.3382.8451.906.8444l4.3604.0112c.5989-.0093.8735-.2832.896-.8874l.0298-22.8614c-.0067-.5841-.4038-1.1374-.957-1.1427m-4.9805 13.8733c-.0278.45-.4705.9-1.0006.8907h-7.7744l4.3868-9.2105 3.6715.0099c.501-.0086.718.5493.7167.8888v7.4211zM226.0008 27.0249l.9655 2.3446h2.7305c.323.0099.4877.3785.362.636l-2.0819 2.3407.7868 1.7927c.1913.401-.0662.8027-.5023.7994l-2.4968.002c-.6201.7087-1.2401 1.4168-1.8609 2.1249-.1999.2005-.3322.221-.4639-.0053l-.6955-2.1415h-2.8284c-.3878.0199-.5737-.3421-.356-.6816l1.882-2.3149-.7451-1.9383c-.1105-.3448-.0417-.6221.274-.63l2.7059.0159 1.9774-2.3532c.115-.1542.2308-.1966.3467.0086" clip-path="url(#SVGID_4_)" fill-rule="evenodd" clip-rule="evenodd"/></g></g></svg>